<mxfile host="app.diagrams.net" agent="Mozilla/5.0 (X11; Linux x86_64) AppleWebKit/537.36 (KHTML, like Gecko) Chrome/108.0.0.0 Safari/537.36 OPR/94.0.0.0" version="24.7.16" pages="3">
  <diagram name="Page-1" id="mh4xyo6f5S1Ok3j-xP9a">
    <mxGraphModel dx="1162" dy="649" grid="0" gridSize="10" guides="1" tooltips="1" connect="1" arrows="1" fold="1" page="1" pageScale="1" pageWidth="850" pageHeight="1100" math="0" shadow="0">
      <root>
        <mxCell id="0" />
        <mxCell id="1" parent="0" />
        <mxCell id="o3CdItLbr71ETqkRI1R_-1" value="Medic" style="swimlane;fontStyle=1;align=center;verticalAlign=top;childLayout=stackLayout;horizontal=1;startSize=26;horizontalStack=0;resizeParent=1;resizeParentMax=0;resizeLast=0;collapsible=1;marginBottom=0;whiteSpace=wrap;html=1;fillColor=#fff2cc;strokeColor=#d6b656;sketch=1;curveFitting=1;jiggle=2;rounded=0;" parent="1" vertex="1">
          <mxGeometry x="370" y="180" width="160" height="128" as="geometry" />
        </mxCell>
        <mxCell id="o3CdItLbr71ETqkRI1R_-2" value="name&lt;div&gt;license&lt;/div&gt;&lt;div&gt;phoneNumber&lt;/div&gt;" style="text;strokeColor=none;fillColor=none;align=left;verticalAlign=top;spacingLeft=4;spacingRight=4;overflow=hidden;rotatable=0;points=[[0,0.5],[1,0.5]];portConstraint=eastwest;whiteSpace=wrap;html=1;" parent="o3CdItLbr71ETqkRI1R_-1" vertex="1">
          <mxGeometry y="26" width="160" height="54" as="geometry" />
        </mxCell>
        <mxCell id="o3CdItLbr71ETqkRI1R_-3" value="" style="line;strokeWidth=1;fillColor=none;align=left;verticalAlign=middle;spacingTop=-1;spacingLeft=3;spacingRight=3;rotatable=0;labelPosition=right;points=[];portConstraint=eastwest;strokeColor=inherit;" parent="o3CdItLbr71ETqkRI1R_-1" vertex="1">
          <mxGeometry y="80" width="160" height="8" as="geometry" />
        </mxCell>
        <mxCell id="o3CdItLbr71ETqkRI1R_-4" value="orderRadiologyExam( )&lt;div&gt;toAttend( )&lt;/div&gt;" style="text;strokeColor=none;fillColor=none;align=left;verticalAlign=top;spacingLeft=4;spacingRight=4;overflow=hidden;rotatable=0;points=[[0,0.5],[1,0.5]];portConstraint=eastwest;whiteSpace=wrap;html=1;" parent="o3CdItLbr71ETqkRI1R_-1" vertex="1">
          <mxGeometry y="88" width="160" height="40" as="geometry" />
        </mxCell>
        <mxCell id="o3CdItLbr71ETqkRI1R_-9" style="edgeStyle=orthogonalEdgeStyle;rounded=0;orthogonalLoop=1;jettySize=auto;html=1;sketch=1;curveFitting=1;jiggle=2;" parent="1" source="o3CdItLbr71ETqkRI1R_-5" target="o3CdItLbr71ETqkRI1R_-1" edge="1">
          <mxGeometry relative="1" as="geometry" />
        </mxCell>
        <mxCell id="o3CdItLbr71ETqkRI1R_-10" value="&amp;lt;&amp;lt; extends &amp;gt;&amp;gt;" style="edgeLabel;html=1;align=center;verticalAlign=middle;resizable=0;points=[];fontStyle=1" parent="o3CdItLbr71ETqkRI1R_-9" vertex="1" connectable="0">
          <mxGeometry x="0.0148" y="-2" relative="1" as="geometry">
            <mxPoint as="offset" />
          </mxGeometry>
        </mxCell>
        <mxCell id="o3CdItLbr71ETqkRI1R_-5" value="Cardiologist" style="swimlane;fontStyle=1;align=center;verticalAlign=top;childLayout=stackLayout;horizontal=1;startSize=26;horizontalStack=0;resizeParent=1;resizeParentMax=0;resizeLast=0;collapsible=1;marginBottom=0;whiteSpace=wrap;html=1;fillColor=#ffe6cc;strokeColor=#d79b00;sketch=1;curveFitting=1;jiggle=2;swimlaneLine=1;glass=0;shadow=0;" parent="1" vertex="1">
          <mxGeometry x="370" y="376" width="160" height="90" as="geometry" />
        </mxCell>
        <mxCell id="o3CdItLbr71ETqkRI1R_-6" value="//attributes" style="text;strokeColor=none;fillColor=none;align=left;verticalAlign=top;spacingLeft=4;spacingRight=4;overflow=hidden;rotatable=0;points=[[0,0.5],[1,0.5]];portConstraint=eastwest;whiteSpace=wrap;html=1;" parent="o3CdItLbr71ETqkRI1R_-5" vertex="1">
          <mxGeometry y="26" width="160" height="26" as="geometry" />
        </mxCell>
        <mxCell id="o3CdItLbr71ETqkRI1R_-7" value="" style="line;strokeWidth=1;fillColor=none;align=left;verticalAlign=middle;spacingTop=-1;spacingLeft=3;spacingRight=3;rotatable=0;labelPosition=right;points=[];portConstraint=eastwest;strokeColor=inherit;" parent="o3CdItLbr71ETqkRI1R_-5" vertex="1">
          <mxGeometry y="52" width="160" height="8" as="geometry" />
        </mxCell>
        <mxCell id="o3CdItLbr71ETqkRI1R_-8" value="&lt;div&gt;&lt;div&gt;&lt;font color=&quot;#336600&quot;&gt;&lt;b&gt;toAttend( )&lt;/b&gt;&lt;/font&gt;&lt;/div&gt;&lt;/div&gt;" style="text;strokeColor=none;fillColor=none;align=left;verticalAlign=top;spacingLeft=4;spacingRight=4;overflow=hidden;rotatable=0;points=[[0,0.5],[1,0.5]];portConstraint=eastwest;whiteSpace=wrap;html=1;" parent="o3CdItLbr71ETqkRI1R_-5" vertex="1">
          <mxGeometry y="60" width="160" height="30" as="geometry" />
        </mxCell>
      </root>
    </mxGraphModel>
  </diagram>
  <diagram id="7YUNQKK0n7KCW2nD6IUm" name="G1">
    <mxGraphModel dx="1162" dy="649" grid="1" gridSize="10" guides="1" tooltips="1" connect="1" arrows="1" fold="1" page="1" pageScale="1" pageWidth="850" pageHeight="1100" math="0" shadow="0">
      <root>
        <mxCell id="0" />
        <mxCell id="1" parent="0" />
        <mxCell id="VvA_toQNnmUeXdUmKIZM-1" value="Nurse" style="swimlane;fontStyle=1;align=center;verticalAlign=top;childLayout=stackLayout;horizontal=1;startSize=26;horizontalStack=0;resizeParent=1;resizeParentMax=0;resizeLast=0;collapsible=1;marginBottom=0;whiteSpace=wrap;html=1;fillColor=#dae8fc;strokeColor=#6c8ebf;" parent="1" vertex="1">
          <mxGeometry x="245" y="300" width="160" height="86" as="geometry" />
        </mxCell>
        <mxCell id="VvA_toQNnmUeXdUmKIZM-2" value="//atributos" style="text;strokeColor=none;fillColor=none;align=left;verticalAlign=top;spacingLeft=4;spacingRight=4;overflow=hidden;rotatable=0;points=[[0,0.5],[1,0.5]];portConstraint=eastwest;whiteSpace=wrap;html=1;" parent="VvA_toQNnmUeXdUmKIZM-1" vertex="1">
          <mxGeometry y="26" width="160" height="26" as="geometry" />
        </mxCell>
        <mxCell id="VvA_toQNnmUeXdUmKIZM-3" value="" style="line;strokeWidth=1;fillColor=none;align=left;verticalAlign=middle;spacingTop=-1;spacingLeft=3;spacingRight=3;rotatable=0;labelPosition=right;points=[];portConstraint=eastwest;strokeColor=inherit;" parent="VvA_toQNnmUeXdUmKIZM-1" vertex="1">
          <mxGeometry y="52" width="160" height="8" as="geometry" />
        </mxCell>
        <mxCell id="VvA_toQNnmUeXdUmKIZM-4" value="&lt;b&gt;&lt;font color=&quot;#e3c607&quot;&gt;toAttend(Patient)&lt;/font&gt;&lt;/b&gt;" style="text;strokeColor=none;fillColor=none;align=left;verticalAlign=top;spacingLeft=4;spacingRight=4;overflow=hidden;rotatable=0;points=[[0,0.5],[1,0.5]];portConstraint=eastwest;whiteSpace=wrap;html=1;" parent="VvA_toQNnmUeXdUmKIZM-1" vertex="1">
          <mxGeometry y="60" width="160" height="26" as="geometry" />
        </mxCell>
        <mxCell id="VvA_toQNnmUeXdUmKIZM-5" value="Medic" style="swimlane;fontStyle=1;align=center;verticalAlign=top;childLayout=stackLayout;horizontal=1;startSize=26;horizontalStack=0;resizeParent=1;resizeParentMax=0;resizeLast=0;collapsible=1;marginBottom=0;whiteSpace=wrap;html=1;fillColor=#ffe6cc;strokeColor=#d79b00;" parent="1" vertex="1">
          <mxGeometry x="445" y="300" width="160" height="100" as="geometry" />
        </mxCell>
        <mxCell id="VvA_toQNnmUeXdUmKIZM-6" value="specialty:String" style="text;strokeColor=none;fillColor=none;align=left;verticalAlign=top;spacingLeft=4;spacingRight=4;overflow=hidden;rotatable=0;points=[[0,0.5],[1,0.5]];portConstraint=eastwest;whiteSpace=wrap;html=1;" parent="VvA_toQNnmUeXdUmKIZM-5" vertex="1">
          <mxGeometry y="26" width="160" height="26" as="geometry" />
        </mxCell>
        <mxCell id="VvA_toQNnmUeXdUmKIZM-7" value="" style="line;strokeWidth=1;fillColor=none;align=left;verticalAlign=middle;spacingTop=-1;spacingLeft=3;spacingRight=3;rotatable=0;labelPosition=right;points=[];portConstraint=eastwest;strokeColor=inherit;" parent="VvA_toQNnmUeXdUmKIZM-5" vertex="1">
          <mxGeometry y="52" width="160" height="8" as="geometry" />
        </mxCell>
        <mxCell id="VvA_toQNnmUeXdUmKIZM-8" value="medicate(Patient)&lt;div&gt;&lt;font color=&quot;#cc6600&quot;&gt;&lt;b&gt;toAttend(Patient)&lt;/b&gt;&lt;/font&gt;&lt;/div&gt;" style="text;strokeColor=none;fillColor=none;align=left;verticalAlign=top;spacingLeft=4;spacingRight=4;overflow=hidden;rotatable=0;points=[[0,0.5],[1,0.5]];portConstraint=eastwest;whiteSpace=wrap;html=1;" parent="VvA_toQNnmUeXdUmKIZM-5" vertex="1">
          <mxGeometry y="60" width="160" height="40" as="geometry" />
        </mxCell>
        <mxCell id="VvA_toQNnmUeXdUmKIZM-13" value="MedicalPersonnel" style="swimlane;fontStyle=1;align=center;verticalAlign=top;childLayout=stackLayout;horizontal=1;startSize=26;horizontalStack=0;resizeParent=1;resizeParentMax=0;resizeLast=0;collapsible=1;marginBottom=0;whiteSpace=wrap;html=1;fillColor=#fff2cc;strokeColor=#d6b656;" parent="1" vertex="1">
          <mxGeometry x="300" y="120" width="160" height="100" as="geometry" />
        </mxCell>
        <mxCell id="VvA_toQNnmUeXdUmKIZM-14" value="name: String" style="text;strokeColor=none;fillColor=none;align=left;verticalAlign=top;spacingLeft=4;spacingRight=4;overflow=hidden;rotatable=0;points=[[0,0.5],[1,0.5]];portConstraint=eastwest;whiteSpace=wrap;html=1;" parent="VvA_toQNnmUeXdUmKIZM-13" vertex="1">
          <mxGeometry y="26" width="160" height="26" as="geometry" />
        </mxCell>
        <mxCell id="VvA_toQNnmUeXdUmKIZM-15" value="" style="line;strokeWidth=1;fillColor=none;align=left;verticalAlign=middle;spacingTop=-1;spacingLeft=3;spacingRight=3;rotatable=0;labelPosition=right;points=[];portConstraint=eastwest;strokeColor=inherit;" parent="VvA_toQNnmUeXdUmKIZM-13" vertex="1">
          <mxGeometry y="52" width="160" height="8" as="geometry" />
        </mxCell>
        <mxCell id="VvA_toQNnmUeXdUmKIZM-16" value="sendToRadiology(Patient)&lt;div&gt;&lt;b&gt;&lt;font color=&quot;#e3c607&quot;&gt;toAttend(Patient)&lt;/font&gt;&lt;/b&gt;&lt;/div&gt;" style="text;strokeColor=none;fillColor=none;align=left;verticalAlign=top;spacingLeft=4;spacingRight=4;overflow=hidden;rotatable=0;points=[[0,0.5],[1,0.5]];portConstraint=eastwest;whiteSpace=wrap;html=1;" parent="VvA_toQNnmUeXdUmKIZM-13" vertex="1">
          <mxGeometry y="60" width="160" height="40" as="geometry" />
        </mxCell>
        <mxCell id="VvA_toQNnmUeXdUmKIZM-17" value="Extends" style="endArrow=block;endSize=16;endFill=0;html=1;rounded=0;exitX=0.546;exitY=0.007;exitDx=0;exitDy=0;exitPerimeter=0;" parent="1" source="VvA_toQNnmUeXdUmKIZM-1" target="VvA_toQNnmUeXdUmKIZM-13" edge="1">
          <mxGeometry width="160" relative="1" as="geometry">
            <mxPoint x="295" y="410" as="sourcePoint" />
            <mxPoint x="455" y="410" as="targetPoint" />
          </mxGeometry>
        </mxCell>
        <mxCell id="VvA_toQNnmUeXdUmKIZM-18" value="Extends" style="endArrow=block;endSize=16;endFill=0;html=1;rounded=0;exitX=0.439;exitY=0.014;exitDx=0;exitDy=0;exitPerimeter=0;" parent="1" source="VvA_toQNnmUeXdUmKIZM-5" target="VvA_toQNnmUeXdUmKIZM-13" edge="1">
          <mxGeometry width="160" relative="1" as="geometry">
            <mxPoint x="342" y="311" as="sourcePoint" />
            <mxPoint x="427" y="214" as="targetPoint" />
          </mxGeometry>
        </mxCell>
        <mxCell id="uYbZJcPnsne9GTwaVppe-1" value="Centro Médico D. Guativa" style="shape=umlFrame;whiteSpace=wrap;html=1;pointerEvents=0;width=190;height=30;fillColor=#f8cecc;gradientColor=#ea6b66;strokeColor=#b85450;" vertex="1" parent="1">
          <mxGeometry x="90" y="90" width="650" height="380" as="geometry" />
        </mxCell>
        <mxCell id="uYbZJcPnsne9GTwaVppe-2" value="Paramedic" style="swimlane;fontStyle=1;align=center;verticalAlign=top;childLayout=stackLayout;horizontal=1;startSize=26;horizontalStack=0;resizeParent=1;resizeParentMax=0;resizeLast=0;collapsible=1;marginBottom=0;whiteSpace=wrap;html=1;fillColor=#f5f5f5;fontColor=#333333;strokeColor=#666666;" vertex="1" parent="1">
          <mxGeometry x="560" y="170" width="160" height="86" as="geometry" />
        </mxCell>
        <mxCell id="uYbZJcPnsne9GTwaVppe-3" value="//atributos" style="text;strokeColor=none;fillColor=none;align=left;verticalAlign=top;spacingLeft=4;spacingRight=4;overflow=hidden;rotatable=0;points=[[0,0.5],[1,0.5]];portConstraint=eastwest;whiteSpace=wrap;html=1;" vertex="1" parent="uYbZJcPnsne9GTwaVppe-2">
          <mxGeometry y="26" width="160" height="26" as="geometry" />
        </mxCell>
        <mxCell id="uYbZJcPnsne9GTwaVppe-4" value="" style="line;strokeWidth=1;fillColor=none;align=left;verticalAlign=middle;spacingTop=-1;spacingLeft=3;spacingRight=3;rotatable=0;labelPosition=right;points=[];portConstraint=eastwest;strokeColor=inherit;" vertex="1" parent="uYbZJcPnsne9GTwaVppe-2">
          <mxGeometry y="52" width="160" height="8" as="geometry" />
        </mxCell>
        <mxCell id="uYbZJcPnsne9GTwaVppe-5" value="&lt;b&gt;&lt;font color=&quot;#e3c607&quot;&gt;toAttend(Patient)&lt;/font&gt;&lt;/b&gt;" style="text;strokeColor=none;fillColor=none;align=left;verticalAlign=top;spacingLeft=4;spacingRight=4;overflow=hidden;rotatable=0;points=[[0,0.5],[1,0.5]];portConstraint=eastwest;whiteSpace=wrap;html=1;" vertex="1" parent="uYbZJcPnsne9GTwaVppe-2">
          <mxGeometry y="60" width="160" height="26" as="geometry" />
        </mxCell>
        <mxCell id="uYbZJcPnsne9GTwaVppe-6" value="Extends" style="endArrow=block;endSize=16;endFill=0;html=1;rounded=0;" edge="1" parent="1" source="uYbZJcPnsne9GTwaVppe-2" target="VvA_toQNnmUeXdUmKIZM-13">
          <mxGeometry width="160" relative="1" as="geometry">
            <mxPoint x="525" y="311" as="sourcePoint" />
            <mxPoint x="456" y="216" as="targetPoint" />
          </mxGeometry>
        </mxCell>
        <mxCell id="uYbZJcPnsne9GTwaVppe-9" value="Nurse" style="swimlane;fontStyle=1;align=center;verticalAlign=top;childLayout=stackLayout;horizontal=1;startSize=26;horizontalStack=0;resizeParent=1;resizeParentMax=0;resizeLast=0;collapsible=1;marginBottom=0;whiteSpace=wrap;html=1;fillColor=#dae8fc;strokeColor=#6c8ebf;" vertex="1" parent="1">
          <mxGeometry x="245" y="750" width="160" height="86" as="geometry" />
        </mxCell>
        <mxCell id="uYbZJcPnsne9GTwaVppe-10" value="//atributos" style="text;strokeColor=none;fillColor=none;align=left;verticalAlign=top;spacingLeft=4;spacingRight=4;overflow=hidden;rotatable=0;points=[[0,0.5],[1,0.5]];portConstraint=eastwest;whiteSpace=wrap;html=1;" vertex="1" parent="uYbZJcPnsne9GTwaVppe-9">
          <mxGeometry y="26" width="160" height="26" as="geometry" />
        </mxCell>
        <mxCell id="uYbZJcPnsne9GTwaVppe-11" value="" style="line;strokeWidth=1;fillColor=none;align=left;verticalAlign=middle;spacingTop=-1;spacingLeft=3;spacingRight=3;rotatable=0;labelPosition=right;points=[];portConstraint=eastwest;strokeColor=inherit;" vertex="1" parent="uYbZJcPnsne9GTwaVppe-9">
          <mxGeometry y="52" width="160" height="8" as="geometry" />
        </mxCell>
        <mxCell id="uYbZJcPnsne9GTwaVppe-12" value="&lt;b&gt;&lt;font color=&quot;#e3c607&quot;&gt;toAttend(Patient)&lt;/font&gt;&lt;/b&gt;" style="text;strokeColor=none;fillColor=none;align=left;verticalAlign=top;spacingLeft=4;spacingRight=4;overflow=hidden;rotatable=0;points=[[0,0.5],[1,0.5]];portConstraint=eastwest;whiteSpace=wrap;html=1;" vertex="1" parent="uYbZJcPnsne9GTwaVppe-9">
          <mxGeometry y="60" width="160" height="26" as="geometry" />
        </mxCell>
        <mxCell id="uYbZJcPnsne9GTwaVppe-13" value="Medic" style="swimlane;fontStyle=1;align=center;verticalAlign=top;childLayout=stackLayout;horizontal=1;startSize=26;horizontalStack=0;resizeParent=1;resizeParentMax=0;resizeLast=0;collapsible=1;marginBottom=0;whiteSpace=wrap;html=1;fillColor=#ffe6cc;strokeColor=#d79b00;" vertex="1" parent="1">
          <mxGeometry x="530" y="680" width="160" height="100" as="geometry" />
        </mxCell>
        <mxCell id="uYbZJcPnsne9GTwaVppe-14" value="specialty:String" style="text;strokeColor=none;fillColor=none;align=left;verticalAlign=top;spacingLeft=4;spacingRight=4;overflow=hidden;rotatable=0;points=[[0,0.5],[1,0.5]];portConstraint=eastwest;whiteSpace=wrap;html=1;" vertex="1" parent="uYbZJcPnsne9GTwaVppe-13">
          <mxGeometry y="26" width="160" height="26" as="geometry" />
        </mxCell>
        <mxCell id="uYbZJcPnsne9GTwaVppe-15" value="" style="line;strokeWidth=1;fillColor=none;align=left;verticalAlign=middle;spacingTop=-1;spacingLeft=3;spacingRight=3;rotatable=0;labelPosition=right;points=[];portConstraint=eastwest;strokeColor=inherit;" vertex="1" parent="uYbZJcPnsne9GTwaVppe-13">
          <mxGeometry y="52" width="160" height="8" as="geometry" />
        </mxCell>
        <mxCell id="uYbZJcPnsne9GTwaVppe-16" value="medicate(Patient)&lt;div&gt;&lt;font color=&quot;#cc6600&quot;&gt;&lt;b&gt;toAttend(Patient)&lt;/b&gt;&lt;/font&gt;&lt;/div&gt;" style="text;strokeColor=none;fillColor=none;align=left;verticalAlign=top;spacingLeft=4;spacingRight=4;overflow=hidden;rotatable=0;points=[[0,0.5],[1,0.5]];portConstraint=eastwest;whiteSpace=wrap;html=1;" vertex="1" parent="uYbZJcPnsne9GTwaVppe-13">
          <mxGeometry y="60" width="160" height="40" as="geometry" />
        </mxCell>
        <mxCell id="uYbZJcPnsne9GTwaVppe-17" value="MedicalPersonnel" style="swimlane;fontStyle=1;align=center;verticalAlign=top;childLayout=stackLayout;horizontal=1;startSize=26;horizontalStack=0;resizeParent=1;resizeParentMax=0;resizeLast=0;collapsible=1;marginBottom=0;whiteSpace=wrap;html=1;fillColor=#fff2cc;strokeColor=#d6b656;" vertex="1" parent="1">
          <mxGeometry x="300" y="570" width="160" height="100" as="geometry" />
        </mxCell>
        <mxCell id="uYbZJcPnsne9GTwaVppe-18" value="name: String" style="text;strokeColor=none;fillColor=none;align=left;verticalAlign=top;spacingLeft=4;spacingRight=4;overflow=hidden;rotatable=0;points=[[0,0.5],[1,0.5]];portConstraint=eastwest;whiteSpace=wrap;html=1;" vertex="1" parent="uYbZJcPnsne9GTwaVppe-17">
          <mxGeometry y="26" width="160" height="26" as="geometry" />
        </mxCell>
        <mxCell id="uYbZJcPnsne9GTwaVppe-19" value="" style="line;strokeWidth=1;fillColor=none;align=left;verticalAlign=middle;spacingTop=-1;spacingLeft=3;spacingRight=3;rotatable=0;labelPosition=right;points=[];portConstraint=eastwest;strokeColor=inherit;" vertex="1" parent="uYbZJcPnsne9GTwaVppe-17">
          <mxGeometry y="52" width="160" height="8" as="geometry" />
        </mxCell>
        <mxCell id="uYbZJcPnsne9GTwaVppe-20" value="sendToRadiology(Patient)&lt;div&gt;&lt;b&gt;&lt;font color=&quot;#e3c607&quot;&gt;toAttend(Patient)&lt;/font&gt;&lt;/b&gt;&lt;/div&gt;" style="text;strokeColor=none;fillColor=none;align=left;verticalAlign=top;spacingLeft=4;spacingRight=4;overflow=hidden;rotatable=0;points=[[0,0.5],[1,0.5]];portConstraint=eastwest;whiteSpace=wrap;html=1;" vertex="1" parent="uYbZJcPnsne9GTwaVppe-17">
          <mxGeometry y="60" width="160" height="40" as="geometry" />
        </mxCell>
        <mxCell id="uYbZJcPnsne9GTwaVppe-21" value="Extends" style="endArrow=block;endSize=16;endFill=0;html=1;rounded=0;exitX=0.546;exitY=0.007;exitDx=0;exitDy=0;exitPerimeter=0;" edge="1" parent="1" source="uYbZJcPnsne9GTwaVppe-9" target="uYbZJcPnsne9GTwaVppe-17">
          <mxGeometry width="160" relative="1" as="geometry">
            <mxPoint x="295" y="860" as="sourcePoint" />
            <mxPoint x="455" y="860" as="targetPoint" />
          </mxGeometry>
        </mxCell>
        <mxCell id="uYbZJcPnsne9GTwaVppe-22" value="Extends" style="endArrow=block;endSize=16;endFill=0;html=1;rounded=0;exitX=0.439;exitY=0.014;exitDx=0;exitDy=0;exitPerimeter=0;" edge="1" parent="1" source="uYbZJcPnsne9GTwaVppe-13" target="uYbZJcPnsne9GTwaVppe-17">
          <mxGeometry width="160" relative="1" as="geometry">
            <mxPoint x="342" y="761" as="sourcePoint" />
            <mxPoint x="427" y="664" as="targetPoint" />
          </mxGeometry>
        </mxCell>
        <mxCell id="uYbZJcPnsne9GTwaVppe-23" value="Centro Médico J. Esquivel" style="shape=umlFrame;whiteSpace=wrap;html=1;pointerEvents=0;width=190;height=30;fillColor=#e6d0de;gradientColor=#d5739d;strokeColor=#996185;" vertex="1" parent="1">
          <mxGeometry x="90" y="540" width="650" height="380" as="geometry" />
        </mxCell>
      </root>
    </mxGraphModel>
  </diagram>
  <diagram id="KcLiqDIVz-LMXaKcESnO" name="G2">
    <mxGraphModel dx="1394" dy="779" grid="1" gridSize="10" guides="1" tooltips="1" connect="1" arrows="1" fold="1" page="1" pageScale="1" pageWidth="850" pageHeight="1100" math="0" shadow="0">
      <root>
        <mxCell id="0" />
        <mxCell id="1" parent="0" />
        <mxCell id="ibf8rEI42-1ewP0bsrIi-3" value="&lt;h1 style=&quot;margin-top: 0px;&quot;&gt;&lt;span style=&quot;font-weight: normal;&quot;&gt;In a hospital a &lt;/span&gt;patient&lt;span style=&quot;font-weight: normal;&quot;&gt; can be &lt;/span&gt;&lt;font style=&quot;&quot; color=&quot;#cc6600&quot;&gt;&lt;i style=&quot;&quot;&gt;&lt;strike&gt;attended&lt;/strike&gt;&lt;/i&gt;&lt;/font&gt;&lt;span style=&quot;font-weight: normal;&quot;&gt; for &lt;font color=&quot;#cc00cc&quot;&gt;medical personnel&lt;/font&gt;. &lt;/span&gt;Nurses&lt;span style=&quot;font-weight: normal;&quot;&gt; and &lt;/span&gt;Medics&lt;span style=&quot;font-weight: normal;&quot;&gt; can &lt;/span&gt;&lt;font style=&quot;&quot; color=&quot;#cc6600&quot;&gt;&lt;i&gt;&lt;strike&gt;send a patient to radiology&lt;/strike&gt;&lt;/i&gt;&lt;/font&gt;&lt;span style=&quot;font-weight: normal;&quot;&gt;, only medics can &lt;/span&gt;&lt;font style=&quot;&quot; color=&quot;#cc6600&quot;&gt;&lt;i&gt;&lt;strike&gt;medicate&lt;/strike&gt;&lt;/i&gt;&lt;/font&gt;&lt;span style=&quot;font-weight: normal;&quot;&gt;. Also each medic when attend a patient will order a medical exam speciﬁc to their specialty&lt;/span&gt;&lt;/h1&gt;" style="text;html=1;whiteSpace=wrap;overflow=hidden;rounded=0;" parent="1" vertex="1">
          <mxGeometry y="20" width="690" height="220" as="geometry" />
        </mxCell>
        <mxCell id="ibf8rEI42-1ewP0bsrIi-4" value="Nurse" style="swimlane;fontStyle=1;align=center;verticalAlign=top;childLayout=stackLayout;horizontal=1;startSize=26;horizontalStack=0;resizeParent=1;resizeParentMax=0;resizeLast=0;collapsible=1;marginBottom=0;whiteSpace=wrap;html=1;fillColor=#f5f5f5;fontColor=#333333;strokeColor=#666666;" parent="1" vertex="1">
          <mxGeometry x="80" y="800" width="190" height="90" as="geometry" />
        </mxCell>
        <mxCell id="ibf8rEI42-1ewP0bsrIi-5" value="//attributes" style="text;strokeColor=none;fillColor=none;align=left;verticalAlign=top;spacingLeft=4;spacingRight=4;overflow=hidden;rotatable=0;points=[[0,0.5],[1,0.5]];portConstraint=eastwest;whiteSpace=wrap;html=1;" parent="ibf8rEI42-1ewP0bsrIi-4" vertex="1">
          <mxGeometry y="26" width="190" height="26" as="geometry" />
        </mxCell>
        <mxCell id="ibf8rEI42-1ewP0bsrIi-6" value="" style="line;strokeWidth=1;fillColor=none;align=left;verticalAlign=middle;spacingTop=-1;spacingLeft=3;spacingRight=3;rotatable=0;labelPosition=right;points=[];portConstraint=eastwest;strokeColor=inherit;" parent="ibf8rEI42-1ewP0bsrIi-4" vertex="1">
          <mxGeometry y="52" width="190" height="8" as="geometry" />
        </mxCell>
        <mxCell id="ibf8rEI42-1ewP0bsrIi-7" value="//methods" style="text;strokeColor=none;fillColor=none;align=left;verticalAlign=top;spacingLeft=4;spacingRight=4;overflow=hidden;rotatable=0;points=[[0,0.5],[1,0.5]];portConstraint=eastwest;whiteSpace=wrap;html=1;" parent="ibf8rEI42-1ewP0bsrIi-4" vertex="1">
          <mxGeometry y="60" width="190" height="30" as="geometry" />
        </mxCell>
        <mxCell id="ibf8rEI42-1ewP0bsrIi-8" value="Medic" style="swimlane;fontStyle=1;align=center;verticalAlign=top;childLayout=stackLayout;horizontal=1;startSize=26;horizontalStack=0;resizeParent=1;resizeParentMax=0;resizeLast=0;collapsible=1;marginBottom=0;whiteSpace=wrap;html=1;fillColor=#fff2cc;strokeColor=#d6b656;" parent="1" vertex="1">
          <mxGeometry x="340" y="800" width="190" height="100" as="geometry" />
        </mxCell>
        <mxCell id="ibf8rEI42-1ewP0bsrIi-9" value="//attributes" style="text;strokeColor=none;fillColor=none;align=left;verticalAlign=top;spacingLeft=4;spacingRight=4;overflow=hidden;rotatable=0;points=[[0,0.5],[1,0.5]];portConstraint=eastwest;whiteSpace=wrap;html=1;" parent="ibf8rEI42-1ewP0bsrIi-8" vertex="1">
          <mxGeometry y="26" width="190" height="26" as="geometry" />
        </mxCell>
        <mxCell id="ibf8rEI42-1ewP0bsrIi-10" value="" style="line;strokeWidth=1;fillColor=none;align=left;verticalAlign=middle;spacingTop=-1;spacingLeft=3;spacingRight=3;rotatable=0;labelPosition=right;points=[];portConstraint=eastwest;strokeColor=inherit;" parent="ibf8rEI42-1ewP0bsrIi-8" vertex="1">
          <mxGeometry y="52" width="190" height="8" as="geometry" />
        </mxCell>
        <mxCell id="ibf8rEI42-1ewP0bsrIi-11" value="&lt;div&gt;prescribe(p: Patient)&lt;/div&gt;&lt;div&gt;&lt;span style=&quot;color: rgb(204, 0, 204);&quot;&gt;attend(p: Patient)&lt;/span&gt;&lt;br&gt;&lt;/div&gt;" style="text;strokeColor=none;fillColor=none;align=left;verticalAlign=top;spacingLeft=4;spacingRight=4;overflow=hidden;rotatable=0;points=[[0,0.5],[1,0.5]];portConstraint=eastwest;whiteSpace=wrap;html=1;" parent="ibf8rEI42-1ewP0bsrIi-8" vertex="1">
          <mxGeometry y="60" width="190" height="40" as="geometry" />
        </mxCell>
        <mxCell id="ibf8rEI42-1ewP0bsrIi-12" value="MedicalPersonnel" style="swimlane;fontStyle=1;align=center;verticalAlign=top;childLayout=stackLayout;horizontal=1;startSize=26;horizontalStack=0;resizeParent=1;resizeParentMax=0;resizeLast=0;collapsible=1;marginBottom=0;whiteSpace=wrap;html=1;fillColor=#e1d5e7;strokeColor=#9673a6;" parent="1" vertex="1">
          <mxGeometry x="200" y="620" width="200" height="100" as="geometry" />
        </mxCell>
        <mxCell id="ibf8rEI42-1ewP0bsrIi-13" value="name: String" style="text;strokeColor=none;fillColor=none;align=left;verticalAlign=top;spacingLeft=4;spacingRight=4;overflow=hidden;rotatable=0;points=[[0,0.5],[1,0.5]];portConstraint=eastwest;whiteSpace=wrap;html=1;" parent="ibf8rEI42-1ewP0bsrIi-12" vertex="1">
          <mxGeometry y="26" width="200" height="26" as="geometry" />
        </mxCell>
        <mxCell id="ibf8rEI42-1ewP0bsrIi-14" value="" style="line;strokeWidth=1;fillColor=none;align=left;verticalAlign=middle;spacingTop=-1;spacingLeft=3;spacingRight=3;rotatable=0;labelPosition=right;points=[];portConstraint=eastwest;strokeColor=inherit;" parent="ibf8rEI42-1ewP0bsrIi-12" vertex="1">
          <mxGeometry y="52" width="200" height="8" as="geometry" />
        </mxCell>
        <mxCell id="ibf8rEI42-1ewP0bsrIi-15" value="&lt;font color=&quot;#cc00cc&quot;&gt;attend(p: Patient)&lt;/font&gt;&lt;div&gt;&lt;font color=&quot;#cc00cc&quot;&gt;sendToRadiology(p: Patient)&lt;/font&gt;&lt;/div&gt;" style="text;strokeColor=none;fillColor=none;align=left;verticalAlign=top;spacingLeft=4;spacingRight=4;overflow=hidden;rotatable=0;points=[[0,0.5],[1,0.5]];portConstraint=eastwest;whiteSpace=wrap;html=1;" parent="ibf8rEI42-1ewP0bsrIi-12" vertex="1">
          <mxGeometry y="60" width="200" height="40" as="geometry" />
        </mxCell>
        <mxCell id="ibf8rEI42-1ewP0bsrIi-16" value="Extends" style="endArrow=block;endSize=16;endFill=0;html=1;rounded=0;" parent="1" source="ibf8rEI42-1ewP0bsrIi-4" target="ibf8rEI42-1ewP0bsrIi-12" edge="1">
          <mxGeometry width="160" relative="1" as="geometry">
            <mxPoint x="40" y="660" as="sourcePoint" />
            <mxPoint x="200" y="660" as="targetPoint" />
          </mxGeometry>
        </mxCell>
        <mxCell id="ibf8rEI42-1ewP0bsrIi-17" value="Extends" style="endArrow=block;endSize=16;endFill=0;html=1;rounded=0;" parent="1" source="ibf8rEI42-1ewP0bsrIi-8" target="ibf8rEI42-1ewP0bsrIi-12" edge="1">
          <mxGeometry width="160" relative="1" as="geometry">
            <mxPoint x="109" y="811" as="sourcePoint" />
            <mxPoint x="233" y="730" as="targetPoint" />
          </mxGeometry>
        </mxCell>
        <mxCell id="ibf8rEI42-1ewP0bsrIi-18" value="Extensibilidad" style="text;html=1;align=center;verticalAlign=middle;whiteSpace=wrap;rounded=0;fontSize=13;" parent="1" vertex="1">
          <mxGeometry x="90" y="190" width="120" height="30" as="geometry" />
        </mxCell>
        <mxCell id="ibf8rEI42-1ewP0bsrIi-19" value="Centro Médico T. Blandón" style="shape=umlFrame;whiteSpace=wrap;html=1;pointerEvents=0;width=200;height=30;fillColor=#a20025;fontColor=#ffffff;strokeColor=#6F0000;" parent="1" vertex="1">
          <mxGeometry x="50" y="570" width="790" height="500" as="geometry" />
        </mxCell>
        <mxCell id="ibf8rEI42-1ewP0bsrIi-20" value="Paramedic" style="swimlane;fontStyle=1;align=center;verticalAlign=top;childLayout=stackLayout;horizontal=1;startSize=26;horizontalStack=0;resizeParent=1;resizeParentMax=0;resizeLast=0;collapsible=1;marginBottom=0;whiteSpace=wrap;html=1;fillColor=#dae8fc;strokeColor=#6c8ebf;" parent="1" vertex="1">
          <mxGeometry x="550" y="670" width="160" height="86" as="geometry" />
        </mxCell>
        <mxCell id="ibf8rEI42-1ewP0bsrIi-21" value="//attributes" style="text;strokeColor=none;fillColor=none;align=left;verticalAlign=top;spacingLeft=4;spacingRight=4;overflow=hidden;rotatable=0;points=[[0,0.5],[1,0.5]];portConstraint=eastwest;whiteSpace=wrap;html=1;" parent="ibf8rEI42-1ewP0bsrIi-20" vertex="1">
          <mxGeometry y="26" width="160" height="26" as="geometry" />
        </mxCell>
        <mxCell id="ibf8rEI42-1ewP0bsrIi-22" value="" style="line;strokeWidth=1;fillColor=none;align=left;verticalAlign=middle;spacingTop=-1;spacingLeft=3;spacingRight=3;rotatable=0;labelPosition=right;points=[];portConstraint=eastwest;strokeColor=inherit;" parent="ibf8rEI42-1ewP0bsrIi-20" vertex="1">
          <mxGeometry y="52" width="160" height="8" as="geometry" />
        </mxCell>
        <mxCell id="ibf8rEI42-1ewP0bsrIi-23" value="//methods" style="text;strokeColor=none;fillColor=none;align=left;verticalAlign=top;spacingLeft=4;spacingRight=4;overflow=hidden;rotatable=0;points=[[0,0.5],[1,0.5]];portConstraint=eastwest;whiteSpace=wrap;html=1;" parent="ibf8rEI42-1ewP0bsrIi-20" vertex="1">
          <mxGeometry y="60" width="160" height="26" as="geometry" />
        </mxCell>
        <mxCell id="ibf8rEI42-1ewP0bsrIi-24" value="Extends" style="endArrow=block;endSize=16;endFill=0;html=1;rounded=0;" parent="1" source="ibf8rEI42-1ewP0bsrIi-20" target="ibf8rEI42-1ewP0bsrIi-12" edge="1">
          <mxGeometry width="160" relative="1" as="geometry">
            <mxPoint x="410" y="810" as="sourcePoint" />
            <mxPoint x="349" y="730" as="targetPoint" />
          </mxGeometry>
        </mxCell>
        <mxCell id="ibf8rEI42-1ewP0bsrIi-39" value="Centro Odontólogico Jeanpierre" style="shape=umlFrame;whiteSpace=wrap;html=1;pointerEvents=0;width=200;height=30;fillColor=#60a917;strokeColor=#2D7600;fontColor=#ffffff;" parent="1" vertex="1">
          <mxGeometry x="50" y="1110" width="720" height="420" as="geometry" />
        </mxCell>
        <mxCell id="ibf8rEI42-1ewP0bsrIi-53" value="MedicalPersonnel" style="swimlane;fontStyle=1;align=center;verticalAlign=top;childLayout=stackLayout;horizontal=1;startSize=26;horizontalStack=0;resizeParent=1;resizeParentMax=0;resizeLast=0;collapsible=1;marginBottom=0;whiteSpace=wrap;html=1;fillColor=#e1d5e7;strokeColor=#9673a6;" parent="1" vertex="1">
          <mxGeometry x="270" y="1170" width="200" height="100" as="geometry" />
        </mxCell>
        <mxCell id="ibf8rEI42-1ewP0bsrIi-54" value="name: String" style="text;strokeColor=none;fillColor=none;align=left;verticalAlign=top;spacingLeft=4;spacingRight=4;overflow=hidden;rotatable=0;points=[[0,0.5],[1,0.5]];portConstraint=eastwest;whiteSpace=wrap;html=1;" parent="ibf8rEI42-1ewP0bsrIi-53" vertex="1">
          <mxGeometry y="26" width="200" height="26" as="geometry" />
        </mxCell>
        <mxCell id="ibf8rEI42-1ewP0bsrIi-55" value="" style="line;strokeWidth=1;fillColor=none;align=left;verticalAlign=middle;spacingTop=-1;spacingLeft=3;spacingRight=3;rotatable=0;labelPosition=right;points=[];portConstraint=eastwest;strokeColor=inherit;" parent="ibf8rEI42-1ewP0bsrIi-53" vertex="1">
          <mxGeometry y="52" width="200" height="8" as="geometry" />
        </mxCell>
        <mxCell id="ibf8rEI42-1ewP0bsrIi-56" value="&lt;font color=&quot;#cc00cc&quot;&gt;attend(p: Patient)&lt;/font&gt;&lt;div&gt;&lt;font color=&quot;#cc00cc&quot;&gt;sendToRadiology(p: Patient)&lt;/font&gt;&lt;/div&gt;" style="text;strokeColor=none;fillColor=none;align=left;verticalAlign=top;spacingLeft=4;spacingRight=4;overflow=hidden;rotatable=0;points=[[0,0.5],[1,0.5]];portConstraint=eastwest;whiteSpace=wrap;html=1;" parent="ibf8rEI42-1ewP0bsrIi-53" vertex="1">
          <mxGeometry y="60" width="200" height="40" as="geometry" />
        </mxCell>
        <mxCell id="ibf8rEI42-1ewP0bsrIi-57" value="Dentist" style="swimlane;fontStyle=1;align=center;verticalAlign=top;childLayout=stackLayout;horizontal=1;startSize=26;horizontalStack=0;resizeParent=1;resizeParentMax=0;resizeLast=0;collapsible=1;marginBottom=0;whiteSpace=wrap;html=1;fillColor=#dae8fc;strokeColor=#6c8ebf;" parent="1" vertex="1">
          <mxGeometry x="290" y="1330" width="160" height="86" as="geometry" />
        </mxCell>
        <mxCell id="ibf8rEI42-1ewP0bsrIi-58" value="//attributes" style="text;strokeColor=none;fillColor=none;align=left;verticalAlign=top;spacingLeft=4;spacingRight=4;overflow=hidden;rotatable=0;points=[[0,0.5],[1,0.5]];portConstraint=eastwest;whiteSpace=wrap;html=1;" parent="ibf8rEI42-1ewP0bsrIi-57" vertex="1">
          <mxGeometry y="26" width="160" height="26" as="geometry" />
        </mxCell>
        <mxCell id="ibf8rEI42-1ewP0bsrIi-59" value="" style="line;strokeWidth=1;fillColor=none;align=left;verticalAlign=middle;spacingTop=-1;spacingLeft=3;spacingRight=3;rotatable=0;labelPosition=right;points=[];portConstraint=eastwest;strokeColor=inherit;" parent="ibf8rEI42-1ewP0bsrIi-57" vertex="1">
          <mxGeometry y="52" width="160" height="8" as="geometry" />
        </mxCell>
        <mxCell id="ibf8rEI42-1ewP0bsrIi-60" value="//methods" style="text;strokeColor=none;fillColor=none;align=left;verticalAlign=top;spacingLeft=4;spacingRight=4;overflow=hidden;rotatable=0;points=[[0,0.5],[1,0.5]];portConstraint=eastwest;whiteSpace=wrap;html=1;" parent="ibf8rEI42-1ewP0bsrIi-57" vertex="1">
          <mxGeometry y="60" width="160" height="26" as="geometry" />
        </mxCell>
        <mxCell id="ibf8rEI42-1ewP0bsrIi-61" value="Extends" style="endArrow=block;endSize=16;endFill=0;html=1;rounded=0;" parent="1" source="ibf8rEI42-1ewP0bsrIi-57" target="ibf8rEI42-1ewP0bsrIi-53" edge="1">
          <mxGeometry width="160" relative="1" as="geometry">
            <mxPoint x="410" y="1180" as="sourcePoint" />
            <mxPoint x="570" y="1180" as="targetPoint" />
          </mxGeometry>
        </mxCell>
        <mxCell id="KQhB--j2mS6ECW-uS0SQ-1" value="Neurologist" style="swimlane;fontStyle=1;align=center;verticalAlign=top;childLayout=stackLayout;horizontal=1;startSize=26;horizontalStack=0;resizeParent=1;resizeParentMax=0;resizeLast=0;collapsible=1;marginBottom=0;whiteSpace=wrap;html=1;fillColor=#ffe6cc;strokeColor=#d79b00;" vertex="1" parent="1">
          <mxGeometry x="340" y="960" width="190" height="100" as="geometry" />
        </mxCell>
        <mxCell id="KQhB--j2mS6ECW-uS0SQ-2" value="//attributes" style="text;strokeColor=none;fillColor=none;align=left;verticalAlign=top;spacingLeft=4;spacingRight=4;overflow=hidden;rotatable=0;points=[[0,0.5],[1,0.5]];portConstraint=eastwest;whiteSpace=wrap;html=1;" vertex="1" parent="KQhB--j2mS6ECW-uS0SQ-1">
          <mxGeometry y="26" width="190" height="26" as="geometry" />
        </mxCell>
        <mxCell id="KQhB--j2mS6ECW-uS0SQ-3" value="" style="line;strokeWidth=1;fillColor=none;align=left;verticalAlign=middle;spacingTop=-1;spacingLeft=3;spacingRight=3;rotatable=0;labelPosition=right;points=[];portConstraint=eastwest;strokeColor=inherit;" vertex="1" parent="KQhB--j2mS6ECW-uS0SQ-1">
          <mxGeometry y="52" width="190" height="8" as="geometry" />
        </mxCell>
        <mxCell id="KQhB--j2mS6ECW-uS0SQ-4" value="&lt;div&gt;prescribe(p: Patient)&lt;/div&gt;&lt;div&gt;&lt;font color=&quot;#cc6600&quot;&gt;attend(p: Patient)&lt;/font&gt;&lt;br&gt;&lt;/div&gt;" style="text;strokeColor=none;fillColor=none;align=left;verticalAlign=top;spacingLeft=4;spacingRight=4;overflow=hidden;rotatable=0;points=[[0,0.5],[1,0.5]];portConstraint=eastwest;whiteSpace=wrap;html=1;" vertex="1" parent="KQhB--j2mS6ECW-uS0SQ-1">
          <mxGeometry y="60" width="190" height="40" as="geometry" />
        </mxCell>
        <mxCell id="KQhB--j2mS6ECW-uS0SQ-5" value="Dermatologist" style="swimlane;fontStyle=1;align=center;verticalAlign=top;childLayout=stackLayout;horizontal=1;startSize=26;horizontalStack=0;resizeParent=1;resizeParentMax=0;resizeLast=0;collapsible=1;marginBottom=0;whiteSpace=wrap;html=1;fillColor=#ffe6cc;strokeColor=#d79b00;" vertex="1" parent="1">
          <mxGeometry x="620" y="870" width="190" height="100" as="geometry" />
        </mxCell>
        <mxCell id="KQhB--j2mS6ECW-uS0SQ-6" value="//attributes" style="text;strokeColor=none;fillColor=none;align=left;verticalAlign=top;spacingLeft=4;spacingRight=4;overflow=hidden;rotatable=0;points=[[0,0.5],[1,0.5]];portConstraint=eastwest;whiteSpace=wrap;html=1;" vertex="1" parent="KQhB--j2mS6ECW-uS0SQ-5">
          <mxGeometry y="26" width="190" height="26" as="geometry" />
        </mxCell>
        <mxCell id="KQhB--j2mS6ECW-uS0SQ-7" value="" style="line;strokeWidth=1;fillColor=none;align=left;verticalAlign=middle;spacingTop=-1;spacingLeft=3;spacingRight=3;rotatable=0;labelPosition=right;points=[];portConstraint=eastwest;strokeColor=inherit;" vertex="1" parent="KQhB--j2mS6ECW-uS0SQ-5">
          <mxGeometry y="52" width="190" height="8" as="geometry" />
        </mxCell>
        <mxCell id="KQhB--j2mS6ECW-uS0SQ-8" value="&lt;div&gt;prescribe(p: Patient)&lt;/div&gt;&lt;div&gt;&lt;font color=&quot;#cc6600&quot;&gt;attend(p: Patient)&lt;/font&gt;&lt;br&gt;&lt;/div&gt;" style="text;strokeColor=none;fillColor=none;align=left;verticalAlign=top;spacingLeft=4;spacingRight=4;overflow=hidden;rotatable=0;points=[[0,0.5],[1,0.5]];portConstraint=eastwest;whiteSpace=wrap;html=1;" vertex="1" parent="KQhB--j2mS6ECW-uS0SQ-5">
          <mxGeometry y="60" width="190" height="40" as="geometry" />
        </mxCell>
        <mxCell id="KQhB--j2mS6ECW-uS0SQ-9" value="Extends" style="endArrow=block;endSize=16;endFill=0;html=1;rounded=0;" edge="1" parent="1" source="KQhB--j2mS6ECW-uS0SQ-1" target="ibf8rEI42-1ewP0bsrIi-8">
          <mxGeometry width="160" relative="1" as="geometry">
            <mxPoint x="408" y="810" as="sourcePoint" />
            <mxPoint x="348" y="730" as="targetPoint" />
          </mxGeometry>
        </mxCell>
        <mxCell id="KQhB--j2mS6ECW-uS0SQ-10" value="Extends" style="endArrow=block;endSize=16;endFill=0;html=1;rounded=0;" edge="1" parent="1" source="KQhB--j2mS6ECW-uS0SQ-5" target="ibf8rEI42-1ewP0bsrIi-8">
          <mxGeometry width="160" relative="1" as="geometry">
            <mxPoint x="445" y="970" as="sourcePoint" />
            <mxPoint x="445" y="910" as="targetPoint" />
          </mxGeometry>
        </mxCell>
        <mxCell id="KQhB--j2mS6ECW-uS0SQ-11" value="Nurse" style="swimlane;fontStyle=1;align=center;verticalAlign=top;childLayout=stackLayout;horizontal=1;startSize=26;horizontalStack=0;resizeParent=1;resizeParentMax=0;resizeLast=0;collapsible=1;marginBottom=0;whiteSpace=wrap;html=1;fillColor=#f5f5f5;fontColor=#333333;strokeColor=#666666;" vertex="1" parent="1">
          <mxGeometry x="900" y="800" width="190" height="90" as="geometry" />
        </mxCell>
        <mxCell id="KQhB--j2mS6ECW-uS0SQ-12" value="//attributes" style="text;strokeColor=none;fillColor=none;align=left;verticalAlign=top;spacingLeft=4;spacingRight=4;overflow=hidden;rotatable=0;points=[[0,0.5],[1,0.5]];portConstraint=eastwest;whiteSpace=wrap;html=1;" vertex="1" parent="KQhB--j2mS6ECW-uS0SQ-11">
          <mxGeometry y="26" width="190" height="26" as="geometry" />
        </mxCell>
        <mxCell id="KQhB--j2mS6ECW-uS0SQ-13" value="" style="line;strokeWidth=1;fillColor=none;align=left;verticalAlign=middle;spacingTop=-1;spacingLeft=3;spacingRight=3;rotatable=0;labelPosition=right;points=[];portConstraint=eastwest;strokeColor=inherit;" vertex="1" parent="KQhB--j2mS6ECW-uS0SQ-11">
          <mxGeometry y="52" width="190" height="8" as="geometry" />
        </mxCell>
        <mxCell id="KQhB--j2mS6ECW-uS0SQ-14" value="//methods" style="text;strokeColor=none;fillColor=none;align=left;verticalAlign=top;spacingLeft=4;spacingRight=4;overflow=hidden;rotatable=0;points=[[0,0.5],[1,0.5]];portConstraint=eastwest;whiteSpace=wrap;html=1;" vertex="1" parent="KQhB--j2mS6ECW-uS0SQ-11">
          <mxGeometry y="60" width="190" height="30" as="geometry" />
        </mxCell>
        <mxCell id="KQhB--j2mS6ECW-uS0SQ-15" value="Medic" style="swimlane;fontStyle=1;align=center;verticalAlign=top;childLayout=stackLayout;horizontal=1;startSize=26;horizontalStack=0;resizeParent=1;resizeParentMax=0;resizeLast=0;collapsible=1;marginBottom=0;whiteSpace=wrap;html=1;fillColor=#fff2cc;strokeColor=#d6b656;" vertex="1" parent="1">
          <mxGeometry x="1160" y="800" width="190" height="100" as="geometry" />
        </mxCell>
        <mxCell id="KQhB--j2mS6ECW-uS0SQ-16" value="//attributes" style="text;strokeColor=none;fillColor=none;align=left;verticalAlign=top;spacingLeft=4;spacingRight=4;overflow=hidden;rotatable=0;points=[[0,0.5],[1,0.5]];portConstraint=eastwest;whiteSpace=wrap;html=1;" vertex="1" parent="KQhB--j2mS6ECW-uS0SQ-15">
          <mxGeometry y="26" width="190" height="26" as="geometry" />
        </mxCell>
        <mxCell id="KQhB--j2mS6ECW-uS0SQ-17" value="" style="line;strokeWidth=1;fillColor=none;align=left;verticalAlign=middle;spacingTop=-1;spacingLeft=3;spacingRight=3;rotatable=0;labelPosition=right;points=[];portConstraint=eastwest;strokeColor=inherit;" vertex="1" parent="KQhB--j2mS6ECW-uS0SQ-15">
          <mxGeometry y="52" width="190" height="8" as="geometry" />
        </mxCell>
        <mxCell id="KQhB--j2mS6ECW-uS0SQ-18" value="&lt;div&gt;prescribe(p: Patient)&lt;/div&gt;&lt;div&gt;&lt;span style=&quot;color: rgb(204, 0, 204);&quot;&gt;attend(p: Patient)&lt;/span&gt;&lt;br&gt;&lt;/div&gt;" style="text;strokeColor=none;fillColor=none;align=left;verticalAlign=top;spacingLeft=4;spacingRight=4;overflow=hidden;rotatable=0;points=[[0,0.5],[1,0.5]];portConstraint=eastwest;whiteSpace=wrap;html=1;" vertex="1" parent="KQhB--j2mS6ECW-uS0SQ-15">
          <mxGeometry y="60" width="190" height="40" as="geometry" />
        </mxCell>
        <mxCell id="KQhB--j2mS6ECW-uS0SQ-19" value="MedicalPersonnel" style="swimlane;fontStyle=1;align=center;verticalAlign=top;childLayout=stackLayout;horizontal=1;startSize=26;horizontalStack=0;resizeParent=1;resizeParentMax=0;resizeLast=0;collapsible=1;marginBottom=0;whiteSpace=wrap;html=1;fillColor=#e1d5e7;strokeColor=#9673a6;" vertex="1" parent="1">
          <mxGeometry x="1020" y="620" width="200" height="100" as="geometry" />
        </mxCell>
        <mxCell id="KQhB--j2mS6ECW-uS0SQ-20" value="name: String" style="text;strokeColor=none;fillColor=none;align=left;verticalAlign=top;spacingLeft=4;spacingRight=4;overflow=hidden;rotatable=0;points=[[0,0.5],[1,0.5]];portConstraint=eastwest;whiteSpace=wrap;html=1;" vertex="1" parent="KQhB--j2mS6ECW-uS0SQ-19">
          <mxGeometry y="26" width="200" height="26" as="geometry" />
        </mxCell>
        <mxCell id="KQhB--j2mS6ECW-uS0SQ-21" value="" style="line;strokeWidth=1;fillColor=none;align=left;verticalAlign=middle;spacingTop=-1;spacingLeft=3;spacingRight=3;rotatable=0;labelPosition=right;points=[];portConstraint=eastwest;strokeColor=inherit;" vertex="1" parent="KQhB--j2mS6ECW-uS0SQ-19">
          <mxGeometry y="52" width="200" height="8" as="geometry" />
        </mxCell>
        <mxCell id="KQhB--j2mS6ECW-uS0SQ-22" value="&lt;font color=&quot;#cc00cc&quot;&gt;attend(p: Patient)&lt;/font&gt;&lt;div&gt;&lt;font color=&quot;#cc00cc&quot;&gt;sendToRadiology(p: Patient)&lt;/font&gt;&lt;/div&gt;" style="text;strokeColor=none;fillColor=none;align=left;verticalAlign=top;spacingLeft=4;spacingRight=4;overflow=hidden;rotatable=0;points=[[0,0.5],[1,0.5]];portConstraint=eastwest;whiteSpace=wrap;html=1;" vertex="1" parent="KQhB--j2mS6ECW-uS0SQ-19">
          <mxGeometry y="60" width="200" height="40" as="geometry" />
        </mxCell>
        <mxCell id="KQhB--j2mS6ECW-uS0SQ-23" value="Extends" style="endArrow=block;endSize=16;endFill=0;html=1;rounded=0;" edge="1" parent="1" source="KQhB--j2mS6ECW-uS0SQ-11" target="KQhB--j2mS6ECW-uS0SQ-19">
          <mxGeometry width="160" relative="1" as="geometry">
            <mxPoint x="860" y="660" as="sourcePoint" />
            <mxPoint x="1020" y="660" as="targetPoint" />
          </mxGeometry>
        </mxCell>
        <mxCell id="KQhB--j2mS6ECW-uS0SQ-24" value="Extends" style="endArrow=block;endSize=16;endFill=0;html=1;rounded=0;" edge="1" parent="1" source="KQhB--j2mS6ECW-uS0SQ-15" target="KQhB--j2mS6ECW-uS0SQ-19">
          <mxGeometry width="160" relative="1" as="geometry">
            <mxPoint x="929" y="811" as="sourcePoint" />
            <mxPoint x="1053" y="730" as="targetPoint" />
          </mxGeometry>
        </mxCell>
        <mxCell id="KQhB--j2mS6ECW-uS0SQ-25" value="Centro Médico N. Suárez" style="shape=umlFrame;whiteSpace=wrap;html=1;pointerEvents=0;width=200;height=30;fillColor=#ffcd28;strokeColor=#d79b00;gradientColor=#ffa500;" vertex="1" parent="1">
          <mxGeometry x="870" y="570" width="790" height="500" as="geometry" />
        </mxCell>
        <mxCell id="KQhB--j2mS6ECW-uS0SQ-26" value="Paramedic" style="swimlane;fontStyle=1;align=center;verticalAlign=top;childLayout=stackLayout;horizontal=1;startSize=26;horizontalStack=0;resizeParent=1;resizeParentMax=0;resizeLast=0;collapsible=1;marginBottom=0;whiteSpace=wrap;html=1;fillColor=#dae8fc;strokeColor=#6c8ebf;" vertex="1" parent="1">
          <mxGeometry x="1370" y="670" width="160" height="86" as="geometry" />
        </mxCell>
        <mxCell id="KQhB--j2mS6ECW-uS0SQ-27" value="//attributes" style="text;strokeColor=none;fillColor=none;align=left;verticalAlign=top;spacingLeft=4;spacingRight=4;overflow=hidden;rotatable=0;points=[[0,0.5],[1,0.5]];portConstraint=eastwest;whiteSpace=wrap;html=1;" vertex="1" parent="KQhB--j2mS6ECW-uS0SQ-26">
          <mxGeometry y="26" width="160" height="26" as="geometry" />
        </mxCell>
        <mxCell id="KQhB--j2mS6ECW-uS0SQ-28" value="" style="line;strokeWidth=1;fillColor=none;align=left;verticalAlign=middle;spacingTop=-1;spacingLeft=3;spacingRight=3;rotatable=0;labelPosition=right;points=[];portConstraint=eastwest;strokeColor=inherit;" vertex="1" parent="KQhB--j2mS6ECW-uS0SQ-26">
          <mxGeometry y="52" width="160" height="8" as="geometry" />
        </mxCell>
        <mxCell id="KQhB--j2mS6ECW-uS0SQ-29" value="//methods" style="text;strokeColor=none;fillColor=none;align=left;verticalAlign=top;spacingLeft=4;spacingRight=4;overflow=hidden;rotatable=0;points=[[0,0.5],[1,0.5]];portConstraint=eastwest;whiteSpace=wrap;html=1;" vertex="1" parent="KQhB--j2mS6ECW-uS0SQ-26">
          <mxGeometry y="60" width="160" height="26" as="geometry" />
        </mxCell>
        <mxCell id="KQhB--j2mS6ECW-uS0SQ-30" value="Extends" style="endArrow=block;endSize=16;endFill=0;html=1;rounded=0;" edge="1" parent="1" source="KQhB--j2mS6ECW-uS0SQ-26" target="KQhB--j2mS6ECW-uS0SQ-19">
          <mxGeometry width="160" relative="1" as="geometry">
            <mxPoint x="1230" y="810" as="sourcePoint" />
            <mxPoint x="1169" y="730" as="targetPoint" />
          </mxGeometry>
        </mxCell>
        <mxCell id="KQhB--j2mS6ECW-uS0SQ-31" value="Cardiologist" style="swimlane;fontStyle=1;align=center;verticalAlign=top;childLayout=stackLayout;horizontal=1;startSize=26;horizontalStack=0;resizeParent=1;resizeParentMax=0;resizeLast=0;collapsible=1;marginBottom=0;whiteSpace=wrap;html=1;fillColor=#ffe6cc;strokeColor=#d79b00;" vertex="1" parent="1">
          <mxGeometry x="1160" y="960" width="190" height="100" as="geometry" />
        </mxCell>
        <mxCell id="KQhB--j2mS6ECW-uS0SQ-32" value="//attributes" style="text;strokeColor=none;fillColor=none;align=left;verticalAlign=top;spacingLeft=4;spacingRight=4;overflow=hidden;rotatable=0;points=[[0,0.5],[1,0.5]];portConstraint=eastwest;whiteSpace=wrap;html=1;" vertex="1" parent="KQhB--j2mS6ECW-uS0SQ-31">
          <mxGeometry y="26" width="190" height="26" as="geometry" />
        </mxCell>
        <mxCell id="KQhB--j2mS6ECW-uS0SQ-33" value="" style="line;strokeWidth=1;fillColor=none;align=left;verticalAlign=middle;spacingTop=-1;spacingLeft=3;spacingRight=3;rotatable=0;labelPosition=right;points=[];portConstraint=eastwest;strokeColor=inherit;" vertex="1" parent="KQhB--j2mS6ECW-uS0SQ-31">
          <mxGeometry y="52" width="190" height="8" as="geometry" />
        </mxCell>
        <mxCell id="KQhB--j2mS6ECW-uS0SQ-34" value="&lt;div&gt;prescribe(p: Patient)&lt;/div&gt;&lt;div&gt;&lt;font color=&quot;#cc6600&quot;&gt;attend(p: Patient)&lt;/font&gt;&lt;br&gt;&lt;/div&gt;" style="text;strokeColor=none;fillColor=none;align=left;verticalAlign=top;spacingLeft=4;spacingRight=4;overflow=hidden;rotatable=0;points=[[0,0.5],[1,0.5]];portConstraint=eastwest;whiteSpace=wrap;html=1;" vertex="1" parent="KQhB--j2mS6ECW-uS0SQ-31">
          <mxGeometry y="60" width="190" height="40" as="geometry" />
        </mxCell>
        <mxCell id="KQhB--j2mS6ECW-uS0SQ-35" value="Traumatologist" style="swimlane;fontStyle=1;align=center;verticalAlign=top;childLayout=stackLayout;horizontal=1;startSize=26;horizontalStack=0;resizeParent=1;resizeParentMax=0;resizeLast=0;collapsible=1;marginBottom=0;whiteSpace=wrap;html=1;fillColor=#ffe6cc;strokeColor=#d79b00;" vertex="1" parent="1">
          <mxGeometry x="1440" y="870" width="190" height="100" as="geometry" />
        </mxCell>
        <mxCell id="KQhB--j2mS6ECW-uS0SQ-36" value="//attributes" style="text;strokeColor=none;fillColor=none;align=left;verticalAlign=top;spacingLeft=4;spacingRight=4;overflow=hidden;rotatable=0;points=[[0,0.5],[1,0.5]];portConstraint=eastwest;whiteSpace=wrap;html=1;" vertex="1" parent="KQhB--j2mS6ECW-uS0SQ-35">
          <mxGeometry y="26" width="190" height="26" as="geometry" />
        </mxCell>
        <mxCell id="KQhB--j2mS6ECW-uS0SQ-37" value="" style="line;strokeWidth=1;fillColor=none;align=left;verticalAlign=middle;spacingTop=-1;spacingLeft=3;spacingRight=3;rotatable=0;labelPosition=right;points=[];portConstraint=eastwest;strokeColor=inherit;" vertex="1" parent="KQhB--j2mS6ECW-uS0SQ-35">
          <mxGeometry y="52" width="190" height="8" as="geometry" />
        </mxCell>
        <mxCell id="KQhB--j2mS6ECW-uS0SQ-38" value="&lt;div&gt;prescribe(p: Patient)&lt;/div&gt;&lt;div&gt;&lt;font color=&quot;#cc6600&quot;&gt;attend(p: Patient)&lt;/font&gt;&lt;br&gt;&lt;/div&gt;" style="text;strokeColor=none;fillColor=none;align=left;verticalAlign=top;spacingLeft=4;spacingRight=4;overflow=hidden;rotatable=0;points=[[0,0.5],[1,0.5]];portConstraint=eastwest;whiteSpace=wrap;html=1;" vertex="1" parent="KQhB--j2mS6ECW-uS0SQ-35">
          <mxGeometry y="60" width="190" height="40" as="geometry" />
        </mxCell>
        <mxCell id="KQhB--j2mS6ECW-uS0SQ-39" value="Extends" style="endArrow=block;endSize=16;endFill=0;html=1;rounded=0;" edge="1" parent="1" source="KQhB--j2mS6ECW-uS0SQ-31" target="KQhB--j2mS6ECW-uS0SQ-15">
          <mxGeometry width="160" relative="1" as="geometry">
            <mxPoint x="1228" y="810" as="sourcePoint" />
            <mxPoint x="1168" y="730" as="targetPoint" />
          </mxGeometry>
        </mxCell>
        <mxCell id="KQhB--j2mS6ECW-uS0SQ-40" value="Extends" style="endArrow=block;endSize=16;endFill=0;html=1;rounded=0;" edge="1" parent="1" source="KQhB--j2mS6ECW-uS0SQ-35" target="KQhB--j2mS6ECW-uS0SQ-15">
          <mxGeometry width="160" relative="1" as="geometry">
            <mxPoint x="1265" y="970" as="sourcePoint" />
            <mxPoint x="1265" y="910" as="targetPoint" />
          </mxGeometry>
        </mxCell>
        <mxCell id="KQhB--j2mS6ECW-uS0SQ-41" value="&lt;h1 style=&quot;margin-top: 0px;&quot;&gt;Principios aplicados&lt;/h1&gt;&lt;p style=&quot;font-size: 13px;&quot;&gt;&lt;b&gt;S&lt;/b&gt;ingle Responsability (responsabilidad simple)&lt;br&gt;&lt;b&gt;O&lt;/b&gt;pen/Closed (abierto/cerrado)&lt;/p&gt;" style="text;html=1;whiteSpace=wrap;overflow=hidden;rounded=0;" vertex="1" parent="1">
          <mxGeometry x="880" y="1120" width="300" height="120" as="geometry" />
        </mxCell>
      </root>
    </mxGraphModel>
  </diagram>
</mxfile>
